<svg xmlns="http://www.w3.org/2000/svg" fill="white" viewBox="0 0 24 24">
  <path d="M12.04 2C6.58 2 3 6.12 3 10.59c0 2.09.79 3.94 2.49 4.63.28.11.53 0 .61-.31.06-.21.19-.74.25-.96.09-.31.06-.42-.18-.69-.49-.56-.8-1.28-.8-2.31 0-2.98 2.24-5.66 5.83-5.66 3.18 0 4.92 1.95 4.92 4.56 0 3.41-1.51 6.3-3.75 6.3-1.24 0-2.17-1.03-1.87-2.3.36-1.51 1.06-3.14 1.06-4.23 0-.98-.52-1.8-1.6-1.8-1.27 0-2.3 1.32-2.3 3.08 0 1.12.38 1.88.38 1.88s-1.25 5.3-1.47 6.23c-.44 1.84-.07 4.09-.03 4.32.02.12.17.16.24.06.1-.13 1.39-1.72 1.83-3.31.12-.45.7-2.73.7-2.73.35.68 1.38 1.28 2.47 1.28 3.25 0 5.46-3.2 5.46-7.49C21 6.09 17.1 2 12.04 2z"></path>
</svg>
