<svg xmlns="http://www.w3.org/2000/svg" fill="white" viewBox="0 0 24 24">
  <path d="M21.4 8.3c-1.91-.07-3.63-.73-4.96-2.01C15.12 5 14.5 3.55 14.5 2h-3c.03 2.66.07 5.32-.08 7.97-.06 1.03-.25 2.05-.82 2.94-.54.86-1.26 1.47-2.25 1.68-.76.16-1.48.05-2.12-.34a3.3 3.3 0 0 1-1.38-1.76c-.37-1.15-.13-2.19.62-3.12.74-.91 1.72-1.37 2.86-1.37.29 0 .57.04.85.12V5.6c-.98-.13-1.94-.06-2.87.22C4.9 6.27 3.7 7.13 2.9 8.37c-.82 1.25-1.16 2.63-1.02 4.1.14 1.45.68 2.75 1.62 3.86A6.17 6.17 0 0 0 6.5 19a6.44 6.44 0 0 0 3.57-1.02 6.6 6.6 0 0 0 2.47-2.89c.49-1.17.7-2.41.77-3.67.11-1.82.13-3.65.14-5.47.01-.35 0-.7 0-1.04.09.08.12.11.16.13.96 1.59 2.3 2.77 4.11 3.2.66.16 1.33.22 2 .27v-3c-.5-.03-1-.06-1.5-.17z"></path>
</svg>
