<svg xmlns="http://www.w3.org/2000/svg" fill="white" viewBox="0 0 24 24">
  <path d="M22.23 7.09c-.1 2.23-1.65 5.29-4.64 9.21C14.4 20.61 11.9 22.5 10 22.5c-1.2 0-2.22-1.11-3.06-3.32l-1.67-6.07c-.62-2.21-1.29-3.32-2.02-3.32-.16 0-.71.33-1.64 1l-1-1.29c1.03-.91 2.05-1.82 3.08-2.73C5.38 5.31 6.4 4.9 7.08 5c1.32.16 2.12 1.42 2.41 3.79.32 2.92.54 4.74.66 5.47.37 1.68.78 2.52 1.23 2.52.35 0 .88-.56 1.59-1.68.71-1.12 1.09-1.98 1.14-2.57.1-.97-.28-1.46-1.14-1.46-.41 0-.83.1-1.25.29.83-2.73 2.41-4.06 4.73-3.99 1.72.05 2.52 1.17 2.41 3.38z"></path>
</svg>
